- 
http://www.Speed.Cd      fast  and The Hottest Private Tracker on the net

Please Seed back to make the speed Faster!!!

------------------nfo--------------------------
-[IMG]http://img851.imageshack.us/img851/4567/speedq.jpg[/IMG]


[color=blue][size=5][b]The.Speed.of.Thought.2011.BDRip.XVID.AC3.HQ.Hive-CM8[/b][/size][/color]


[b]Thx Hive

CM8 Doing It Right The First Time :D


Source: German Bluray

Notes: 
English DVD is already out since April, but not the Bluray and no date yet. 
German Bluray is out now and had English Audio on it.
Movie looks interesting, if you missed it previously like me, here is your chance.
enjoy

Video: 720x400 @bitrate 1800 2pass
Audio: English DTS to AC3 5.1 @384
Sample: yes included[/b]
 
http://www.imdb.com/title/tt0847825/


General
Complete name                    : The.Speed.of.Thought.2011.BDRip.XVID.AC3.HQ.Hive-CM8.avi
Format                           : AVI
Format/Info                      : Audio Video Interleave
File size                        : 1.44 GiB
Duration                         : 1h 33mn
Overall bit rate                 : 2 193 Kbps
Writing application              : Nandub v1.0rc2
Writing library                  : Nandub build 1853/release

Video
ID                               : 0
Format                           : MPEG-4 Visual
Format profile                   : Advanced Simple@L5
Format settings, BVOP            : 1
Format settings, QPel            : Yes
Format settings, GMC             : No warppoints
Format settings, Matrix          : Default (H.263)
Muxing mode                      : Packed bitstream
Codec ID                         : XVID
Codec ID/Hint                    : XviD
Duration                         : 1h 33mn
Bit rate                         : 1 800 Kbps
Width                            : 720 pixels
Height                           : 400 pixels
Display aspect ratio             : 16:9
Frame rate                       : 23.976 fps
Color space                      : YUV
Chroma subsampling               : 4:2:0
Bit depth                        : 8 bits
Scan type                        : Progressive
Compression mode                 : Lossy
Bits/(Pixel*Frame)               : 0.261
Stream size                      : 1.18 GiB (82%)
Writing library                  : XviD 1.2.1 (UTC 2008-12-04)

Audio
ID                               : 1
Format                           : AC-3
Format/Info                      : Audio Coding 3
Mode extension                   : CM (complete main)
Codec ID                         : 2000
Duration                         : 1h 33mn
Bit rate mode                    : Constant
Bit rate                         : 384 Kbps
Channel(s)                       : 6 channels
Channel positions                : Front: L C R, Side: L R, LFE
Sampling rate                    : 48.0 KHz
Bit depth                        : 16 bits
Compression mode                 : Lossy
Stream size                      : 257 MiB (18%)
Alignment                        : Split accross interleaves
Interleave, duration             : 42 ms (1.00 video frame)
Interleave, preload duration     : 500 ms


Plot:
Joshua Lazarus has a special gift -- but will this gift destroy him before he
can escape to freedom with his newly found soul mate?


Cast:
Nick Stahl       ...     Joshua Lazarus
Taryn Manning    ...     Kira
Wallace Shawn    ...     Sandy
Blair Brown      ...     Bridger
Ma Maestro      ...     Anna Manheim


[img]http://img440.imageshack.us/img440/8827/81797139.png[/img]
[img]http://img210.imageshack.us/img210/5004/spsp.png[/img]
[img]http://img27.imageshack.us/img27/8537/spspsp.png[/img]
[img]http://img836.imageshack.us/img836/5602/spspspsp.png[/img]
[img]http://img51.imageshack.us/img51/599/spspspspsp.png[/img]
[img]http://img268.imageshack.us/img268/5381/spspspspspsp.png[/img]



Greetz

ViSiON,SiC,SANTi,3LT0N,YanKeeS,MAGNET,THC,T0XiC,LKRG,FANTASIA-PLAY,FANTASIA-M,FLAWL3SS,
D2U,WBZ,BHRG,NOVA,Vik,Rapeseed,SAFC,goldadvance,MEMORY100,KaN1vE,Unevano,Pinnz,Wayne
Mr Hive,cedrict wink,and all P2P groups
Great Work Guys :D

LOOKING FOR ANYTHING YOU WANT TO LOOK AND SOUND BETTER

CM8@hushmail.com